<svg width="800" height="600" xmlns="http://www.w3.org/2000/svg">
 <!-- Created with Method Draw - http://github.com/duopixel/Method-Draw/ -->

 <g>
  <title>background</title>
  <rect fill="#fff" id="canvas_background" height="602" width="802" y="-1" x="-1"/>
  <g display="none" overflow="visible" y="0" x="0" height="100%" width="100%" id="canvasGrid">
   <rect fill="url(#gridpattern)" stroke-width="0" y="0" x="0" height="100%" width="100%"/>
  </g>
 </g>
 <g>
  <title>Layer 1</title>
  <g transform="matrix(0.6702956764127387,0,0,0.6702956764127387,0,0) " id="svg_6">
   <path id="svg_7" fill="#010002" d="m503.9261,327.6102c-15.752,0 -28.566,12.814 -28.566,28.566s12.814,28.566 28.566,28.566s28.566,-12.814 28.566,-28.566s-12.815,-28.566 -28.566,-28.566zm0,46.254c-9.752,0 -17.688,-7.936 -17.688,-17.688s7.936,-17.688 17.688,-17.688c9.752,0 17.688,7.936 17.688,17.688s-7.936,17.688 -17.688,17.688z"/>
   <path id="svg_8" fill="#010002" d="m596.3791,327.6102c-15.752,0 -28.566,12.814 -28.566,28.566s12.814,28.566 28.566,28.566s28.566,-12.814 28.566,-28.566s-12.815,-28.566 -28.566,-28.566zm0,46.254c-9.752,0 -17.688,-7.936 -17.688,-17.688s7.936,-17.688 17.688,-17.688s17.688,7.936 17.688,17.688s-7.936,17.688 -17.688,17.688z"/>
   <path id="svg_9" fill="#010002" d="m690.3281,384.7422c15.752,0 28.566,-12.814 28.566,-28.566s-12.815,-28.566 -28.566,-28.566s-28.566,12.814 -28.566,28.566s12.814,28.566 28.566,28.566zm0,-46.254c9.752,0 17.688,7.936 17.688,17.688s-7.936,17.688 -17.688,17.688c-9.752,0 -17.688,-7.936 -17.688,-17.688s7.936,-17.688 17.688,-17.688z"/>
   <path id="svg_10" fill="#010002" d="m503.1751,476.2762c15.752,0 28.566,-12.809 28.566,-28.566c0,-15.752 -12.814,-28.566 -28.566,-28.566s-28.566,12.815 -28.566,28.566s12.814,28.566 28.566,28.566zm0,-46.254c9.752,0 17.688,7.936 17.688,17.688s-7.936,17.688 -17.688,17.688s-17.688,-7.936 -17.688,-17.688s7.936,-17.688 17.688,-17.688z"/>
   <path id="svg_11" fill="#010002" d="m595.6341,476.2762c15.752,0 28.566,-12.809 28.566,-28.566c0,-15.752 -12.814,-28.566 -28.566,-28.566s-28.566,12.814 -28.566,28.566s12.814,28.566 28.566,28.566zm0,-46.254c9.752,0 17.688,7.936 17.688,17.688s-7.936,17.688 -17.688,17.688s-17.688,-7.936 -17.688,-17.688s7.93,-17.688 17.688,-17.688z"/>
   <path id="svg_12" fill="#010002" d="m689.5831,476.2762c15.752,0 28.566,-12.809 28.566,-28.566c0,-15.752 -12.814,-28.566 -28.566,-28.566s-28.566,12.814 -28.566,28.566c-0.006,15.752 12.814,28.566 28.566,28.566zm0,-46.254c9.752,0 17.688,7.936 17.688,17.688s-7.936,17.688 -17.688,17.688c-9.752,0 -17.688,-7.936 -17.688,-17.688s7.93,-17.688 17.688,-17.688z"/>
   <path id="svg_13" fill="#010002" d="m503.8331,510.3852c-15.752,0 -28.566,12.814 -28.566,28.566c0,15.752 12.814,28.566 28.566,28.566s28.566,-12.81 28.566,-28.566c0,-15.747 -12.814,-28.566 -28.566,-28.566zm0,46.253c-9.752,0 -17.688,-7.936 -17.688,-17.688c0,-9.752 7.936,-17.688 17.688,-17.688s17.688,7.936 17.688,17.688c0,9.753 -7.936,17.688 -17.688,17.688z"/>
   <path id="svg_14" fill="#010002" d="m596.2921,510.3852c-15.752,0 -28.566,12.814 -28.566,28.566c0,15.752 12.814,28.566 28.566,28.566s28.566,-12.809 28.566,-28.566c0,-15.747 -12.815,-28.566 -28.566,-28.566zm0,46.253c-9.752,0 -17.688,-7.936 -17.688,-17.688c0,-9.752 7.936,-17.688 17.688,-17.688s17.688,7.936 17.688,17.688c0,9.753 -7.936,17.688 -17.688,17.688z"/>
   <path id="svg_15" fill="#010002" d="m690.2411,510.3852c-15.752,0 -28.566,12.814 -28.566,28.566c0,15.752 12.814,28.566 28.566,28.566s28.566,-12.809 28.566,-28.566c-0.006,-15.747 -12.82,-28.566 -28.566,-28.566zm0,46.253c-9.752,0 -17.688,-7.936 -17.688,-17.688c0,-9.752 7.936,-17.688 17.688,-17.688c9.752,0 17.688,7.936 17.688,17.688c0,9.753 -7.941,17.688 -17.688,17.688z"/>
  </g>
  <g transform="matrix(0.6702956764127387,0,0,0.6702956764127387,0,0) " id="svg_16"/>
  <g transform="matrix(0.6702956764127387,0,0,0.6702956764127387,0,0) " id="svg_17"/>
  <g transform="matrix(0.6702956764127387,0,0,0.6702956764127387,0,0) " id="svg_18"/>
  <g transform="matrix(0.6702956764127387,0,0,0.6702956764127387,0,0) " id="svg_19"/>
  <g transform="matrix(0.6702956764127387,0,0,0.6702956764127387,0,0) " id="svg_20"/>
  <g transform="matrix(0.6702956764127387,0,0,0.6702956764127387,0,0) " id="svg_21"/>
  <g transform="matrix(0.6702956764127387,0,0,0.6702956764127387,0,0) " id="svg_22"/>
  <g transform="matrix(0.6702956764127387,0,0,0.6702956764127387,0,0) " id="svg_23"/>
  <g transform="matrix(0.6702956764127387,0,0,0.6702956764127387,0,0) " id="svg_24"/>
  <g transform="matrix(0.6702956764127387,0,0,0.6702956764127387,0,0) " id="svg_25"/>
  <g transform="matrix(0.6702956764127387,0,0,0.6702956764127387,0,0) " id="svg_26"/>
  <g transform="matrix(0.6702956764127387,0,0,0.6702956764127387,0,0) " id="svg_27"/>
  <g transform="matrix(0.6702956764127387,0,0,0.6702956764127387,0,0) " id="svg_28"/>
  <g transform="matrix(0.6702956764127387,0,0,0.6702956764127387,0,0) " id="svg_29"/>
  <g transform="matrix(0.6702956764127387,0,0,0.6702956764127387,0,0) " id="svg_30"/>
  <ellipse stroke="#000" ry="11.84894" rx="12.36977" id="svg_41" cy="238.67149" cx="463.15035" fill-opacity="null" stroke-opacity="null" stroke-width="1.5" fill="#9ACEE6"/>
  <ellipse ry="19.66143" rx="20.44268" id="svg_43" cy="361.84839" cx="463.15035" stroke-opacity="null" stroke-width="1.5" fill="#005fbf"/>
  <ellipse ry="19.66143" rx="20.44268" id="svg_55" cy="238.67149" cx="338.15054" stroke-opacity="null" stroke-width="1.5" fill="#005fbf"/>
  <ellipse ry="19.66143" rx="20.44268" id="svg_57" cy="238.67149" cx="463.41076" stroke-opacity="null" stroke-width="1.5" fill="#005fbf"/>
  <ellipse ry="19.66143" rx="20.44268" id="svg_58" cy="299.86931" cx="462.3691" stroke-opacity="null" stroke-width="1.5" fill="#005fbf"/>
  <ellipse ry="19.66143" rx="20.44268" id="svg_60" cy="239.16635" cx="400.04826" stroke-opacity="null" stroke-width="1.5" fill="#005fbf"/>
  <ellipse ry="19.66143" rx="20.44268" id="svg_61" cy="361.58797" cx="338.15054" stroke-opacity="null" stroke-width="1.5" fill="#005fbf"/>
  <ellipse ry="19.66143" rx="20.44268" id="svg_62" cy="361.06714" cx="400.12961" stroke-opacity="null" stroke-width="1.5" fill="#005fbf"/>
  <ellipse ry="19.66143" rx="20.44268" id="svg_63" cy="299.86931" cx="337.10888" stroke-opacity="null" stroke-width="1.5" fill="#005fbf"/>
  <ellipse ry="19.66143" rx="20.44268" id="svg_64" cy="299.86931" cx="400.04826" stroke-opacity="null" stroke-width="1.5" fill="#005fbf"/>
 </g>
</svg>